G75*
G70*
%OFA0B0*%
%FSLAX24Y24*%
%IPPOS*%
%LPD*%
%AMOC8*
5,1,8,0,0,1.08239X$1,22.5*
%
%ADD10C,0.0080*%
%ADD11C,0.0020*%
%ADD12C,0.0070*%
%ADD13C,0.0050*%
%ADD14C,0.0200*%
D10*
X000140Y000140D02*
X017840Y000140D01*
X017840Y017840D01*
X000140Y017840D01*
X000140Y000140D01*
D11*
X006947Y001050D02*
X006947Y001160D01*
X006984Y001197D01*
X007021Y001160D01*
X007021Y001050D01*
X007094Y001050D02*
X007094Y001197D01*
X007057Y001197D01*
X007021Y001160D01*
X007168Y001160D02*
X007205Y001197D01*
X007278Y001197D01*
X007315Y001160D01*
X007315Y001087D01*
X007278Y001050D01*
X007205Y001050D01*
X007168Y001087D01*
X007168Y001160D01*
X007389Y001197D02*
X007499Y001197D01*
X007536Y001160D01*
X007536Y001087D01*
X007499Y001050D01*
X007389Y001050D01*
X007610Y001050D02*
X007610Y001087D01*
X007647Y001087D01*
X007647Y001050D01*
X007610Y001050D01*
X007721Y001050D02*
X007831Y001050D01*
X007868Y001087D01*
X007868Y001160D01*
X007831Y001197D01*
X007721Y001197D01*
X007721Y001270D02*
X007721Y001050D01*
X007942Y001123D02*
X008089Y001123D01*
X008089Y001087D02*
X008089Y001160D01*
X008052Y001197D01*
X007979Y001197D01*
X007942Y001160D01*
X007942Y001123D01*
X007979Y001050D02*
X008052Y001050D01*
X008089Y001087D01*
X008163Y001050D02*
X008273Y001050D01*
X008310Y001087D01*
X008310Y001160D01*
X008273Y001197D01*
X008163Y001197D01*
X008163Y001270D02*
X008163Y001050D01*
X008384Y001050D02*
X008494Y001050D01*
X008531Y001087D01*
X008531Y001160D01*
X008494Y001197D01*
X008384Y001197D01*
X008384Y001270D02*
X008384Y001050D01*
X008605Y001123D02*
X008752Y001123D01*
X008752Y001087D02*
X008752Y001160D01*
X008715Y001197D01*
X008642Y001197D01*
X008605Y001160D01*
X008605Y001123D01*
X008642Y001050D02*
X008715Y001050D01*
X008752Y001087D01*
X008826Y001087D02*
X008862Y001050D01*
X008973Y001050D01*
X008973Y001270D01*
X008973Y001197D02*
X008862Y001197D01*
X008826Y001160D01*
X008826Y001087D01*
X009047Y001050D02*
X009047Y001160D01*
X009083Y001197D01*
X009120Y001160D01*
X009120Y001050D01*
X009194Y001050D02*
X009194Y001197D01*
X009157Y001197D01*
X009120Y001160D01*
X009268Y001050D02*
X009415Y001050D01*
X009415Y001270D01*
X009268Y001270D01*
X009341Y001160D02*
X009415Y001160D01*
X009489Y001123D02*
X009489Y001087D01*
X009525Y001050D01*
X009636Y001050D01*
X009636Y001270D01*
X009525Y001270D01*
X009489Y001233D01*
X009489Y001197D01*
X009525Y001160D01*
X009636Y001160D01*
X009525Y001160D02*
X009489Y001123D01*
X009710Y001050D02*
X009820Y001160D01*
X009857Y001123D02*
X009710Y001270D01*
X009857Y001270D02*
X009857Y001050D01*
X009930Y001050D02*
X009930Y001087D01*
X009967Y001087D01*
X009967Y001050D01*
X009930Y001050D01*
X010041Y001087D02*
X010041Y001197D01*
X010041Y001087D02*
X010078Y001050D01*
X010115Y001087D01*
X010151Y001050D01*
X010188Y001087D01*
X010188Y001197D01*
X010262Y001197D02*
X010262Y001087D01*
X010299Y001050D01*
X010336Y001087D01*
X010372Y001050D01*
X010409Y001087D01*
X010409Y001197D01*
X010483Y001197D02*
X010483Y001087D01*
X010520Y001050D01*
X010557Y001087D01*
X010593Y001050D01*
X010630Y001087D01*
X010630Y001197D01*
D12*
X010560Y001450D02*
X009760Y001450D01*
X009760Y002150D01*
X009610Y002300D01*
X010060Y002650D02*
X010060Y002950D01*
X010560Y002950D01*
X010560Y002050D01*
X010360Y002050D01*
X010110Y001800D01*
X009760Y001450D02*
X008910Y001450D01*
X008760Y001600D01*
X008760Y001900D01*
X008910Y001450D02*
X007010Y001450D01*
X007010Y002100D01*
X007010Y002950D01*
X007760Y002950D01*
X009110Y002950D01*
X010060Y002950D01*
X010060Y002650D02*
X010360Y002350D01*
X010560Y002050D02*
X010560Y001450D01*
X009110Y002950D02*
X008660Y002500D01*
X008310Y002500D01*
X007760Y002850D02*
X007760Y002950D01*
X007760Y002850D02*
X007360Y002450D01*
X007460Y002100D02*
X007010Y002100D01*
X007460Y002100D02*
X007660Y001900D01*
D13*
X007543Y001900D02*
X007545Y001921D01*
X007550Y001941D01*
X007560Y001960D01*
X007572Y001977D01*
X007587Y001991D01*
X007605Y002003D01*
X007624Y002011D01*
X007644Y002016D01*
X007665Y002017D01*
X007686Y002014D01*
X007706Y002008D01*
X007724Y001998D01*
X007741Y001985D01*
X007755Y001969D01*
X007765Y001951D01*
X007773Y001931D01*
X007777Y001910D01*
X007777Y001890D01*
X007773Y001869D01*
X007765Y001849D01*
X007755Y001831D01*
X007741Y001815D01*
X007724Y001802D01*
X007706Y001792D01*
X007686Y001786D01*
X007665Y001783D01*
X007644Y001784D01*
X007624Y001789D01*
X007605Y001797D01*
X007587Y001809D01*
X007572Y001823D01*
X007560Y001840D01*
X007550Y001859D01*
X007545Y001879D01*
X007543Y001900D01*
X007246Y002450D02*
X007248Y002471D01*
X007254Y002491D01*
X007263Y002510D01*
X007276Y002527D01*
X007291Y002541D01*
X007309Y002552D01*
X007329Y002560D01*
X007349Y002564D01*
X007371Y002564D01*
X007391Y002560D01*
X007411Y002552D01*
X007429Y002541D01*
X007444Y002527D01*
X007457Y002510D01*
X007466Y002491D01*
X007472Y002471D01*
X007474Y002450D01*
X007472Y002429D01*
X007466Y002409D01*
X007457Y002390D01*
X007444Y002373D01*
X007429Y002359D01*
X007411Y002348D01*
X007391Y002340D01*
X007371Y002336D01*
X007349Y002336D01*
X007329Y002340D01*
X007309Y002348D01*
X007291Y002359D01*
X007276Y002373D01*
X007263Y002390D01*
X007254Y002409D01*
X007248Y002429D01*
X007246Y002450D01*
X008196Y002500D02*
X008198Y002521D01*
X008204Y002541D01*
X008213Y002560D01*
X008226Y002577D01*
X008241Y002591D01*
X008259Y002602D01*
X008279Y002610D01*
X008299Y002614D01*
X008321Y002614D01*
X008341Y002610D01*
X008361Y002602D01*
X008379Y002591D01*
X008394Y002577D01*
X008407Y002560D01*
X008416Y002541D01*
X008422Y002521D01*
X008424Y002500D01*
X008422Y002479D01*
X008416Y002459D01*
X008407Y002440D01*
X008394Y002423D01*
X008379Y002409D01*
X008361Y002398D01*
X008341Y002390D01*
X008321Y002386D01*
X008299Y002386D01*
X008279Y002390D01*
X008259Y002398D01*
X008241Y002409D01*
X008226Y002423D01*
X008213Y002440D01*
X008204Y002459D01*
X008198Y002479D01*
X008196Y002500D01*
X008646Y001900D02*
X008648Y001921D01*
X008654Y001941D01*
X008663Y001960D01*
X008676Y001977D01*
X008691Y001991D01*
X008709Y002002D01*
X008729Y002010D01*
X008749Y002014D01*
X008771Y002014D01*
X008791Y002010D01*
X008811Y002002D01*
X008829Y001991D01*
X008844Y001977D01*
X008857Y001960D01*
X008866Y001941D01*
X008872Y001921D01*
X008874Y001900D01*
X008872Y001879D01*
X008866Y001859D01*
X008857Y001840D01*
X008844Y001823D01*
X008829Y001809D01*
X008811Y001798D01*
X008791Y001790D01*
X008771Y001786D01*
X008749Y001786D01*
X008729Y001790D01*
X008709Y001798D01*
X008691Y001809D01*
X008676Y001823D01*
X008663Y001840D01*
X008654Y001859D01*
X008648Y001879D01*
X008646Y001900D01*
X009497Y002300D02*
X009499Y002321D01*
X009505Y002341D01*
X009514Y002359D01*
X009526Y002376D01*
X009542Y002390D01*
X009560Y002401D01*
X009579Y002409D01*
X009600Y002413D01*
X009620Y002413D01*
X009641Y002409D01*
X009660Y002401D01*
X009678Y002390D01*
X009694Y002376D01*
X009706Y002359D01*
X009715Y002341D01*
X009721Y002321D01*
X009723Y002300D01*
X009721Y002279D01*
X009715Y002259D01*
X009706Y002241D01*
X009694Y002224D01*
X009678Y002210D01*
X009660Y002199D01*
X009641Y002191D01*
X009620Y002187D01*
X009600Y002187D01*
X009579Y002191D01*
X009560Y002199D01*
X009542Y002210D01*
X009526Y002224D01*
X009514Y002241D01*
X009505Y002259D01*
X009499Y002279D01*
X009497Y002300D01*
X009997Y001800D02*
X009999Y001821D01*
X010005Y001841D01*
X010014Y001859D01*
X010026Y001876D01*
X010042Y001890D01*
X010060Y001901D01*
X010079Y001909D01*
X010100Y001913D01*
X010120Y001913D01*
X010141Y001909D01*
X010160Y001901D01*
X010178Y001890D01*
X010194Y001876D01*
X010206Y001859D01*
X010215Y001841D01*
X010221Y001821D01*
X010223Y001800D01*
X010221Y001779D01*
X010215Y001759D01*
X010206Y001741D01*
X010194Y001724D01*
X010178Y001710D01*
X010160Y001699D01*
X010141Y001691D01*
X010120Y001687D01*
X010100Y001687D01*
X010079Y001691D01*
X010060Y001699D01*
X010042Y001710D01*
X010026Y001724D01*
X010014Y001741D01*
X010005Y001759D01*
X009999Y001779D01*
X009997Y001800D01*
X010239Y002350D02*
X010241Y002372D01*
X010247Y002393D01*
X010256Y002412D01*
X010269Y002430D01*
X010285Y002445D01*
X010303Y002457D01*
X010323Y002465D01*
X010344Y002470D01*
X010365Y002471D01*
X010387Y002468D01*
X010408Y002461D01*
X010427Y002451D01*
X010444Y002437D01*
X010458Y002421D01*
X010469Y002402D01*
X010477Y002382D01*
X010481Y002361D01*
X010481Y002339D01*
X010477Y002318D01*
X010469Y002298D01*
X010458Y002279D01*
X010444Y002263D01*
X010427Y002249D01*
X010408Y002239D01*
X010387Y002232D01*
X010365Y002229D01*
X010344Y002230D01*
X010323Y002235D01*
X010303Y002243D01*
X010285Y002255D01*
X010269Y002270D01*
X010256Y002288D01*
X010247Y002307D01*
X010241Y002328D01*
X010239Y002350D01*
D14*
X010177Y002200D02*
X009626Y001650D01*
X009163Y001650D02*
X008613Y001650D01*
X008429Y001833D01*
X008429Y002017D01*
X008613Y002200D01*
X009163Y002200D01*
X009163Y001650D02*
X009163Y002751D01*
X008613Y002751D01*
X008429Y002567D01*
X008429Y002384D01*
X008613Y002200D01*
X007966Y002200D02*
X007599Y002200D01*
X007966Y001650D02*
X007232Y001650D01*
X007966Y001650D02*
X007966Y002751D01*
X007232Y002751D01*
X009626Y002751D02*
X010360Y002017D01*
X010360Y001650D02*
X010360Y002751D01*
M02*
