%
M48
M72
T01C0.0320
T02C0.0354
T03C0.0433
%
T01
X4140Y5240
X5840Y4740
X5840Y5740
X5840Y6740
X5840Y7740
X4140Y7240
X4040Y8140
X4040Y11140
X4840Y11140
X4840Y13140
X9740Y8940
X10740Y8940
X10740Y9740
X12040Y10640
X10740Y11740
X10740Y12640
X10740Y13640
X12040Y13640
X13340Y13640
X13340Y10640
X16940Y9540
X16940Y8540
X16940Y7540
X16940Y6540
X16940Y5540
X16940Y4540
X10940Y5540
X10940Y6540
X8840Y6740
X8840Y5740
X8840Y4740
X8840Y7740
T02
X2540Y5240
X2540Y7240
T03
X5940Y9840
X5940Y10940
X5940Y12040
X5940Y13140
X8940Y13140
X8940Y12040
X8940Y10940
X8940Y9840
M30
