G75*
G70*
%OFA0B0*%
%FSLAX24Y24*%
%IPPOS*%
%LPD*%
%AMOC8*
5,1,8,0,0,1.08239X$1,22.5*
%
%ADD10C,0.0080*%
%ADD11C,0.0030*%
%ADD12C,0.0020*%
%ADD13C,0.0060*%
%ADD14C,0.0050*%
%ADD15R,0.0256X0.1000*%
%ADD16C,0.0120*%
%ADD17R,0.0200X0.0736*%
%ADD18R,0.0250X0.0335*%
%ADD19C,0.0100*%
%ADD20R,0.0200X0.0150*%
%ADD21R,0.0800X0.0200*%
%ADD22R,0.0200X0.0250*%
D10*
X000140Y000140D02*
X017840Y000140D01*
X017840Y017840D01*
X000140Y017840D01*
X000140Y000140D01*
X001910Y005232D02*
X001912Y005282D01*
X001918Y005332D01*
X001928Y005381D01*
X001942Y005429D01*
X001959Y005476D01*
X001980Y005521D01*
X002005Y005565D01*
X002033Y005606D01*
X002065Y005645D01*
X002099Y005682D01*
X002136Y005716D01*
X002176Y005746D01*
X002218Y005773D01*
X002262Y005797D01*
X002308Y005818D01*
X002355Y005834D01*
X002403Y005847D01*
X002453Y005856D01*
X002502Y005861D01*
X002553Y005862D01*
X002603Y005859D01*
X002652Y005852D01*
X002701Y005841D01*
X002749Y005826D01*
X002795Y005808D01*
X002840Y005786D01*
X002883Y005760D01*
X002924Y005731D01*
X002963Y005699D01*
X002999Y005664D01*
X003031Y005626D01*
X003061Y005586D01*
X003088Y005543D01*
X003111Y005499D01*
X003130Y005453D01*
X003146Y005405D01*
X003158Y005356D01*
X003166Y005307D01*
X003170Y005257D01*
X003170Y005207D01*
X003166Y005157D01*
X003158Y005108D01*
X003146Y005059D01*
X003130Y005011D01*
X003111Y004965D01*
X003088Y004921D01*
X003061Y004878D01*
X003031Y004838D01*
X002999Y004800D01*
X002963Y004765D01*
X002924Y004733D01*
X002883Y004704D01*
X002840Y004678D01*
X002795Y004656D01*
X002749Y004638D01*
X002701Y004623D01*
X002652Y004612D01*
X002603Y004605D01*
X002553Y004602D01*
X002502Y004603D01*
X002453Y004608D01*
X002403Y004617D01*
X002355Y004630D01*
X002308Y004646D01*
X002262Y004667D01*
X002218Y004691D01*
X002176Y004718D01*
X002136Y004748D01*
X002099Y004782D01*
X002065Y004819D01*
X002033Y004858D01*
X002005Y004899D01*
X001980Y004943D01*
X001959Y004988D01*
X001942Y005035D01*
X001928Y005083D01*
X001918Y005132D01*
X001912Y005182D01*
X001910Y005232D01*
X001910Y007232D02*
X001912Y007282D01*
X001918Y007332D01*
X001928Y007381D01*
X001942Y007429D01*
X001959Y007476D01*
X001980Y007521D01*
X002005Y007565D01*
X002033Y007606D01*
X002065Y007645D01*
X002099Y007682D01*
X002136Y007716D01*
X002176Y007746D01*
X002218Y007773D01*
X002262Y007797D01*
X002308Y007818D01*
X002355Y007834D01*
X002403Y007847D01*
X002453Y007856D01*
X002502Y007861D01*
X002553Y007862D01*
X002603Y007859D01*
X002652Y007852D01*
X002701Y007841D01*
X002749Y007826D01*
X002795Y007808D01*
X002840Y007786D01*
X002883Y007760D01*
X002924Y007731D01*
X002963Y007699D01*
X002999Y007664D01*
X003031Y007626D01*
X003061Y007586D01*
X003088Y007543D01*
X003111Y007499D01*
X003130Y007453D01*
X003146Y007405D01*
X003158Y007356D01*
X003166Y007307D01*
X003170Y007257D01*
X003170Y007207D01*
X003166Y007157D01*
X003158Y007108D01*
X003146Y007059D01*
X003130Y007011D01*
X003111Y006965D01*
X003088Y006921D01*
X003061Y006878D01*
X003031Y006838D01*
X002999Y006800D01*
X002963Y006765D01*
X002924Y006733D01*
X002883Y006704D01*
X002840Y006678D01*
X002795Y006656D01*
X002749Y006638D01*
X002701Y006623D01*
X002652Y006612D01*
X002603Y006605D01*
X002553Y006602D01*
X002502Y006603D01*
X002453Y006608D01*
X002403Y006617D01*
X002355Y006630D01*
X002308Y006646D01*
X002262Y006667D01*
X002218Y006691D01*
X002176Y006718D01*
X002136Y006748D01*
X002099Y006782D01*
X002065Y006819D01*
X002033Y006858D01*
X002005Y006899D01*
X001980Y006943D01*
X001959Y006988D01*
X001942Y007035D01*
X001928Y007083D01*
X001918Y007132D01*
X001912Y007182D01*
X001910Y007232D01*
D11*
X001725Y006670D02*
X001725Y006423D01*
X001725Y006302D02*
X001725Y006055D01*
X001355Y006055D01*
X001478Y006423D02*
X001355Y006547D01*
X001725Y006547D01*
X004655Y006447D02*
X005025Y006447D01*
X005025Y006570D02*
X005025Y006323D01*
X004963Y006202D02*
X005025Y006140D01*
X005025Y006017D01*
X004963Y005955D01*
X004716Y005955D01*
X004655Y006017D01*
X004655Y006140D01*
X004716Y006202D01*
X004778Y006323D02*
X004655Y006447D01*
X005617Y008255D02*
X005740Y008255D01*
X005802Y008317D01*
X005802Y008625D01*
X005923Y008502D02*
X006047Y008625D01*
X006047Y008255D01*
X006170Y008255D02*
X005923Y008255D01*
X005617Y008255D02*
X005555Y008317D01*
X005555Y008625D01*
X003425Y009455D02*
X003055Y009455D01*
X003055Y009640D01*
X003116Y009702D01*
X003240Y009702D01*
X003302Y009640D01*
X003302Y009455D01*
X003302Y009578D02*
X003425Y009702D01*
X003425Y009823D02*
X003425Y010070D01*
X003425Y009947D02*
X003055Y009947D01*
X003178Y009823D01*
X003855Y011955D02*
X003855Y012140D01*
X003916Y012202D01*
X004163Y012202D01*
X004225Y012140D01*
X004225Y011955D01*
X003855Y011955D01*
X003855Y012323D02*
X004040Y012323D01*
X003978Y012447D01*
X003978Y012508D01*
X004040Y012570D01*
X004163Y012570D01*
X004225Y012508D01*
X004225Y012385D01*
X004163Y012323D01*
X003855Y012323D02*
X003855Y012570D01*
X006355Y016855D02*
X006355Y017225D01*
X006417Y017102D02*
X006540Y017102D01*
X006602Y017040D01*
X006602Y016855D01*
X006785Y016917D02*
X006847Y016855D01*
X006785Y016917D02*
X006785Y017164D01*
X006723Y017102D02*
X006847Y017102D01*
X006969Y017102D02*
X007092Y017102D01*
X007031Y017164D02*
X007031Y016917D01*
X007092Y016855D01*
X007214Y016855D02*
X007400Y016855D01*
X007461Y016917D01*
X007461Y017040D01*
X007400Y017102D01*
X007214Y017102D01*
X007214Y016732D01*
X007583Y016855D02*
X007583Y016917D01*
X007644Y016917D01*
X007644Y016855D01*
X007583Y016855D01*
X007767Y016855D02*
X008014Y017225D01*
X008382Y017225D02*
X008135Y016855D01*
X008504Y016917D02*
X008565Y016855D01*
X008750Y016855D01*
X008750Y017225D01*
X008750Y017102D02*
X008565Y017102D01*
X008504Y017040D01*
X008504Y016917D01*
X008872Y016917D02*
X008934Y016855D01*
X009119Y016855D01*
X009240Y016917D02*
X009240Y017040D01*
X009302Y017102D01*
X009487Y017102D01*
X009487Y017225D02*
X009487Y016855D01*
X009302Y016855D01*
X009240Y016917D01*
X009119Y017102D02*
X008934Y017102D01*
X008872Y017040D01*
X008872Y016917D01*
X009608Y016917D02*
X009670Y016855D01*
X009855Y016855D01*
X009855Y017040D01*
X009794Y017102D01*
X009670Y017102D01*
X009670Y016978D02*
X009855Y016978D01*
X009977Y016978D02*
X010100Y017102D01*
X010162Y017102D01*
X010284Y017225D02*
X010284Y016855D01*
X010284Y016978D02*
X010469Y017102D01*
X010591Y016917D02*
X010652Y016917D01*
X010652Y016855D01*
X010591Y016855D01*
X010591Y016917D01*
X010469Y016855D02*
X010284Y016978D01*
X009977Y016855D02*
X009977Y017102D01*
X009670Y016978D02*
X009608Y016917D01*
X010775Y016855D02*
X010775Y017102D01*
X010960Y017102D01*
X011022Y017040D01*
X011022Y016855D01*
X011143Y016917D02*
X011143Y017040D01*
X011205Y017102D01*
X011328Y017102D01*
X011390Y017040D01*
X011390Y016978D01*
X011143Y016978D01*
X011143Y016917D02*
X011205Y016855D01*
X011328Y016855D01*
X011573Y016917D02*
X011635Y016855D01*
X011573Y016917D02*
X011573Y017164D01*
X011511Y017102D02*
X011635Y017102D01*
X011755Y014425D02*
X011940Y014425D01*
X012002Y014364D01*
X012002Y014240D01*
X011940Y014178D01*
X011755Y014178D01*
X011755Y014055D02*
X011755Y014425D01*
X011878Y014178D02*
X012002Y014055D01*
X012123Y014055D02*
X012370Y014302D01*
X012370Y014364D01*
X012308Y014425D01*
X012185Y014425D01*
X012123Y014364D01*
X012123Y014055D02*
X012370Y014055D01*
X011070Y014055D02*
X010823Y014055D01*
X011070Y014302D01*
X011070Y014364D01*
X011008Y014425D01*
X010885Y014425D01*
X010823Y014364D01*
X010702Y014364D02*
X010640Y014425D01*
X010517Y014425D01*
X010455Y014364D01*
X010455Y014117D01*
X010517Y014055D01*
X010640Y014055D01*
X010702Y014117D01*
X010008Y013325D02*
X009885Y013325D01*
X009823Y013264D01*
X009702Y013264D02*
X009702Y013017D01*
X009640Y012955D01*
X009455Y012955D01*
X009455Y013325D01*
X009640Y013325D01*
X009702Y013264D01*
X009823Y012955D02*
X010070Y013202D01*
X010070Y013264D01*
X010008Y013325D01*
X010070Y012955D02*
X009823Y012955D01*
X009947Y012225D02*
X009823Y012102D01*
X009702Y012164D02*
X009702Y011917D01*
X009640Y011855D01*
X009455Y011855D01*
X009455Y012225D01*
X009640Y012225D01*
X009702Y012164D01*
X009947Y012225D02*
X009947Y011855D01*
X010070Y011855D02*
X009823Y011855D01*
X009640Y011125D02*
X009455Y011125D01*
X009455Y010755D01*
X009640Y010755D01*
X009702Y010817D01*
X009702Y011064D01*
X009640Y011125D01*
X009823Y010940D02*
X010070Y010940D01*
X010008Y010755D02*
X010008Y011125D01*
X009823Y010940D01*
X009885Y010025D02*
X010008Y010025D01*
X010070Y009964D01*
X010070Y009902D01*
X010008Y009840D01*
X010070Y009778D01*
X010070Y009717D01*
X010008Y009655D01*
X009885Y009655D01*
X009823Y009717D01*
X009702Y009717D02*
X009640Y009655D01*
X009455Y009655D01*
X009455Y010025D01*
X009640Y010025D01*
X009702Y009964D01*
X009702Y009717D01*
X009823Y009964D02*
X009885Y010025D01*
X009947Y009840D02*
X010008Y009840D01*
X011255Y010517D02*
X011316Y010455D01*
X011563Y010455D01*
X011625Y010517D01*
X011625Y010640D01*
X011563Y010702D01*
X011440Y010823D02*
X011440Y011070D01*
X011625Y011008D02*
X011255Y011008D01*
X011440Y010823D01*
X011316Y010702D02*
X011255Y010640D01*
X011255Y010517D01*
X010508Y008425D02*
X010385Y008425D01*
X010323Y008364D01*
X010202Y008364D02*
X010140Y008425D01*
X010017Y008425D01*
X009955Y008364D01*
X009955Y008117D01*
X010017Y008055D01*
X010140Y008055D01*
X010202Y008117D01*
X010323Y008117D02*
X010385Y008055D01*
X010508Y008055D01*
X010570Y008117D01*
X010570Y008178D01*
X010508Y008240D01*
X010447Y008240D01*
X010508Y008240D02*
X010570Y008302D01*
X010570Y008364D01*
X010508Y008425D01*
X013855Y011855D02*
X013855Y012040D01*
X013916Y012102D01*
X014163Y012102D01*
X014225Y012040D01*
X014225Y011855D01*
X013855Y011855D01*
X014040Y012223D02*
X014040Y012408D01*
X014102Y012470D01*
X014163Y012470D01*
X014225Y012408D01*
X014225Y012285D01*
X014163Y012223D01*
X014040Y012223D01*
X013916Y012347D01*
X013855Y012470D01*
X015178Y009735D02*
X015178Y009673D01*
X015302Y009550D01*
X015302Y009429D02*
X015240Y009429D01*
X015178Y009367D01*
X015178Y009243D01*
X015240Y009182D01*
X015363Y009182D01*
X015425Y009243D01*
X015425Y009367D01*
X015302Y009429D02*
X015302Y009182D01*
X015425Y009060D02*
X015425Y008875D01*
X015363Y008813D01*
X015240Y008813D01*
X015178Y008875D01*
X015178Y009060D01*
X015055Y009060D02*
X015425Y009060D01*
X015425Y008692D02*
X015240Y008692D01*
X015178Y008630D01*
X015178Y008507D01*
X015302Y008507D02*
X015363Y008445D01*
X015425Y008507D01*
X015425Y008692D01*
X015302Y008692D02*
X015302Y008507D01*
X015302Y008324D02*
X015240Y008324D01*
X015178Y008262D01*
X015178Y008138D01*
X015240Y008077D01*
X015363Y008077D01*
X015425Y008138D01*
X015425Y008262D01*
X015302Y008324D02*
X015302Y008077D01*
X015240Y007955D02*
X015240Y007708D01*
X015425Y007708D02*
X015055Y007708D01*
X015055Y007955D02*
X015425Y007955D01*
X015363Y007219D02*
X015425Y007157D01*
X015425Y007034D01*
X015363Y006972D01*
X015240Y007095D02*
X015240Y007157D01*
X015302Y007219D01*
X015363Y007219D01*
X015240Y007157D02*
X015178Y007219D01*
X015116Y007219D01*
X015055Y007157D01*
X015055Y007034D01*
X015116Y006972D01*
X015055Y006850D02*
X015425Y006603D01*
X015425Y006482D02*
X015425Y006235D01*
X015178Y006482D01*
X015116Y006482D01*
X015055Y006420D01*
X015055Y006297D01*
X015116Y006235D01*
X015178Y006113D02*
X015178Y005990D01*
X015116Y006051D02*
X015363Y006051D01*
X015425Y006113D01*
X015425Y005868D02*
X015425Y005744D01*
X015425Y005806D02*
X015178Y005806D01*
X015178Y005744D01*
X015178Y005622D02*
X015302Y005437D01*
X015425Y005622D01*
X015425Y005437D02*
X015055Y005437D01*
X015116Y005316D02*
X015055Y005254D01*
X015055Y005131D01*
X015116Y005069D01*
X015363Y005069D01*
X015425Y005131D01*
X015425Y005254D01*
X015363Y005316D01*
X015425Y004947D02*
X015425Y004823D01*
X015425Y004885D02*
X015055Y004885D01*
X015055Y004823D02*
X015055Y004947D01*
X015116Y004702D02*
X015240Y004702D01*
X015302Y004640D01*
X015302Y004455D01*
X015425Y004455D02*
X015055Y004455D01*
X015055Y004640D01*
X015116Y004702D01*
X015055Y005806D02*
X014993Y005806D01*
X015755Y006878D02*
X015755Y007002D01*
X015755Y006940D02*
X016063Y006940D01*
X016125Y006878D01*
X016125Y006817D01*
X016063Y006755D01*
X016125Y007123D02*
X016125Y007370D01*
X016125Y007247D02*
X015755Y007247D01*
X015878Y007123D01*
X015425Y009550D02*
X015178Y009550D01*
X011270Y004825D02*
X011023Y004825D01*
X011023Y004640D01*
X011147Y004702D01*
X011208Y004702D01*
X011270Y004640D01*
X011270Y004517D01*
X011208Y004455D01*
X011085Y004455D01*
X011023Y004517D01*
X010902Y004517D02*
X010840Y004455D01*
X010717Y004455D01*
X010655Y004517D01*
X010655Y004764D01*
X010717Y004825D01*
X010840Y004825D01*
X010902Y004764D01*
X008926Y003964D02*
X008926Y003902D01*
X008864Y003840D01*
X008926Y003778D01*
X008926Y003717D01*
X008864Y003655D01*
X008740Y003655D01*
X008679Y003717D01*
X008557Y003717D02*
X008557Y003778D01*
X008496Y003840D01*
X008372Y003840D01*
X008310Y003902D01*
X008310Y003964D01*
X008372Y004025D01*
X008496Y004025D01*
X008557Y003964D01*
X008557Y003902D01*
X008496Y003840D01*
X008372Y003840D02*
X008310Y003778D01*
X008310Y003717D01*
X008372Y003655D01*
X008496Y003655D01*
X008557Y003717D01*
X008802Y003840D02*
X008864Y003840D01*
X008926Y003964D02*
X008864Y004025D01*
X008740Y004025D01*
X008679Y003964D01*
X008189Y004025D02*
X008066Y003964D01*
X007942Y003840D01*
X008127Y003840D01*
X008189Y003778D01*
X008189Y003717D01*
X008127Y003655D01*
X008004Y003655D01*
X007942Y003717D01*
X007942Y003840D01*
X007821Y004025D02*
X007574Y004025D01*
X007574Y003655D01*
X007452Y003655D02*
X007205Y003655D01*
X007452Y003902D01*
X007452Y003964D01*
X007391Y004025D01*
X007267Y004025D01*
X007205Y003964D01*
X006961Y004025D02*
X006961Y003655D01*
X007084Y003655D02*
X006837Y003655D01*
X006716Y003717D02*
X006654Y003655D01*
X006531Y003655D01*
X006469Y003717D01*
X006469Y003964D01*
X006531Y004025D01*
X006654Y004025D01*
X006716Y003964D01*
X006837Y003902D02*
X006961Y004025D01*
X006347Y004025D02*
X006223Y004025D01*
X006285Y004025D02*
X006285Y003655D01*
X006223Y003655D02*
X006347Y003655D01*
X006102Y003840D02*
X006102Y003964D01*
X006040Y004025D01*
X005855Y004025D01*
X005855Y003655D01*
X005855Y003778D02*
X006040Y003778D01*
X006102Y003840D01*
X007574Y003840D02*
X007697Y003840D01*
X007644Y017040D02*
X007583Y017040D01*
X007583Y017102D01*
X007644Y017102D01*
X007644Y017040D01*
X006417Y017102D02*
X006355Y017040D01*
D12*
X001430Y015576D02*
X001210Y015576D01*
X001320Y015465D01*
X001320Y015612D01*
X001393Y015392D02*
X001430Y015392D01*
X001430Y015355D01*
X001393Y015355D01*
X001393Y015392D01*
X001430Y015281D02*
X001430Y015134D01*
X001430Y015207D02*
X001210Y015207D01*
X001283Y015134D01*
X001030Y015060D02*
X000810Y015060D01*
X000920Y015134D02*
X000920Y015281D01*
X000957Y015355D02*
X000957Y015465D01*
X000920Y015502D01*
X000847Y015502D01*
X000810Y015465D01*
X000810Y015355D01*
X001030Y015355D01*
X000957Y015428D02*
X001030Y015502D01*
X001030Y015576D02*
X000810Y015576D01*
X000810Y015723D01*
X000810Y015797D02*
X000810Y015870D01*
X000810Y015834D02*
X001030Y015834D01*
X001030Y015870D02*
X001030Y015797D01*
X001030Y015944D02*
X000810Y015944D01*
X000810Y016054D01*
X000847Y016091D01*
X000993Y016091D01*
X001030Y016054D01*
X001030Y015944D01*
X000920Y016165D02*
X000920Y016312D01*
X000993Y016386D02*
X000847Y016533D01*
X000993Y016533D01*
X001030Y016496D01*
X001030Y016423D01*
X000993Y016386D01*
X000847Y016386D01*
X000810Y016423D01*
X000810Y016496D01*
X000847Y016533D01*
X000883Y016607D02*
X001030Y016754D01*
X000993Y016828D02*
X000957Y016828D01*
X000920Y016865D01*
X000920Y016938D01*
X000957Y016975D01*
X000993Y016975D01*
X001030Y016938D01*
X001030Y016865D01*
X000993Y016828D01*
X000920Y016865D02*
X000883Y016828D01*
X000847Y016828D01*
X000810Y016865D01*
X000810Y016938D01*
X000847Y016975D01*
X000883Y016975D01*
X000920Y016938D01*
X000993Y017049D02*
X000847Y017196D01*
X000993Y017196D01*
X001030Y017159D01*
X001030Y017086D01*
X000993Y017049D01*
X000847Y017049D01*
X000810Y017086D01*
X000810Y017159D01*
X000847Y017196D01*
X000847Y017270D02*
X000810Y017307D01*
X000810Y017380D01*
X000847Y017417D01*
X000993Y017270D01*
X001030Y017307D01*
X001030Y017380D01*
X000993Y017417D01*
X000847Y017417D01*
X000847Y017491D02*
X000883Y017491D01*
X000920Y017528D01*
X000920Y017601D01*
X000957Y017638D01*
X000993Y017638D01*
X001030Y017601D01*
X001030Y017528D01*
X000993Y017491D01*
X000957Y017491D01*
X000920Y017528D01*
X000920Y017601D02*
X000883Y017638D01*
X000847Y017638D01*
X000810Y017601D01*
X000810Y017528D01*
X000847Y017491D01*
X000847Y017270D02*
X000993Y017270D01*
X000883Y016754D02*
X001030Y016607D01*
X000630Y016607D02*
X000593Y016607D01*
X000593Y016644D01*
X000630Y016644D01*
X000630Y016607D01*
X000593Y016533D02*
X000520Y016533D01*
X000483Y016496D01*
X000483Y016423D01*
X000520Y016386D01*
X000593Y016386D01*
X000630Y016423D01*
X000630Y016496D01*
X000593Y016533D01*
X000520Y016607D02*
X000483Y016607D01*
X000483Y016644D01*
X000520Y016644D01*
X000520Y016607D01*
X000630Y016312D02*
X000410Y016312D01*
X000410Y016165D02*
X000630Y016312D01*
X000630Y016165D02*
X000410Y016165D01*
X000483Y015870D02*
X000667Y015870D01*
X000703Y015833D01*
X000703Y015797D01*
X000630Y015760D02*
X000630Y015870D01*
X000630Y015760D02*
X000593Y015723D01*
X000483Y015723D01*
X000410Y015613D02*
X000630Y015613D01*
X000630Y015649D02*
X000630Y015576D01*
X000593Y015502D02*
X000520Y015502D01*
X000483Y015465D01*
X000483Y015355D01*
X000410Y015355D02*
X000630Y015355D01*
X000630Y015465D01*
X000593Y015502D01*
X000410Y015576D02*
X000410Y015613D01*
X000520Y015281D02*
X000630Y015281D01*
X000630Y015207D02*
X000520Y015207D01*
X000483Y015244D01*
X000520Y015281D01*
X000520Y015207D02*
X000483Y015171D01*
X000483Y015134D01*
X000630Y015134D01*
X000557Y015060D02*
X000520Y015060D01*
X000483Y015023D01*
X000483Y014950D01*
X000520Y014913D01*
X000593Y014913D01*
X000630Y014950D01*
X000630Y015023D01*
X000557Y015060D02*
X000557Y014913D01*
X000593Y014839D02*
X000557Y014802D01*
X000557Y014729D01*
X000520Y014692D01*
X000483Y014729D01*
X000483Y014839D01*
X000593Y014839D02*
X000630Y014802D01*
X000630Y014692D01*
X000593Y014618D02*
X000557Y014581D01*
X000557Y014508D01*
X000520Y014471D01*
X000483Y014508D01*
X000483Y014618D01*
X000593Y014618D02*
X000630Y014581D01*
X000630Y014471D01*
X000630Y014397D02*
X000483Y014397D01*
X000410Y014323D01*
X000483Y014250D01*
X000630Y014250D01*
X000520Y014250D02*
X000520Y014397D01*
X000810Y014360D02*
X000810Y014250D01*
X001030Y014250D01*
X001030Y014360D01*
X000993Y014397D01*
X000847Y014397D01*
X000810Y014360D01*
X000847Y014471D02*
X000993Y014471D01*
X001030Y014508D01*
X001030Y014581D01*
X000993Y014618D01*
X001030Y014692D02*
X001030Y014802D01*
X000993Y014839D01*
X000847Y014839D01*
X000810Y014802D01*
X000810Y014692D01*
X001030Y014692D01*
X000847Y014618D02*
X000810Y014581D01*
X000810Y014508D01*
X000847Y014471D01*
X001210Y014360D02*
X001247Y014397D01*
X001320Y014397D01*
X001357Y014360D01*
X001357Y014250D01*
X001430Y014250D02*
X001210Y014250D01*
X001210Y014360D01*
X001357Y014323D02*
X001430Y014397D01*
X001393Y014471D02*
X001320Y014471D01*
X001283Y014508D01*
X001283Y014581D01*
X001320Y014618D01*
X001357Y014618D01*
X001357Y014471D01*
X001393Y014471D02*
X001430Y014508D01*
X001430Y014581D01*
X001283Y014692D02*
X001430Y014765D01*
X001283Y014839D01*
X001030Y014913D02*
X000810Y014913D01*
X001030Y015060D01*
X000920Y015576D02*
X000920Y015649D01*
D13*
X003740Y010640D02*
X004340Y010640D01*
X004357Y010638D01*
X004374Y010634D01*
X004390Y010627D01*
X004404Y010617D01*
X004417Y010604D01*
X004427Y010590D01*
X004434Y010574D01*
X004438Y010557D01*
X004440Y010540D01*
X004440Y010390D01*
X004390Y010340D01*
X004390Y008940D01*
X004440Y008890D01*
X004440Y008740D01*
X004438Y008723D01*
X004434Y008706D01*
X004427Y008690D01*
X004417Y008676D01*
X004404Y008663D01*
X004390Y008653D01*
X004374Y008646D01*
X004357Y008642D01*
X004340Y008640D01*
X003740Y008640D01*
X003723Y008642D01*
X003706Y008646D01*
X003690Y008653D01*
X003676Y008663D01*
X003663Y008676D01*
X003653Y008690D01*
X003646Y008706D01*
X003642Y008723D01*
X003640Y008740D01*
X003640Y008890D01*
X003690Y008940D01*
X003690Y010340D01*
X003640Y010390D01*
X003640Y010540D01*
X003642Y010557D01*
X003646Y010574D01*
X003653Y010590D01*
X003663Y010604D01*
X003676Y010617D01*
X003690Y010627D01*
X003706Y010634D01*
X003723Y010638D01*
X003740Y010640D01*
X006340Y008240D02*
X006340Y004240D01*
X008340Y004240D01*
X008340Y008240D01*
X007590Y008240D01*
X007588Y008210D01*
X007583Y008180D01*
X007574Y008151D01*
X007561Y008124D01*
X007546Y008098D01*
X007527Y008074D01*
X007506Y008053D01*
X007482Y008034D01*
X007456Y008019D01*
X007429Y008006D01*
X007400Y007997D01*
X007370Y007992D01*
X007340Y007990D01*
X007310Y007992D01*
X007280Y007997D01*
X007251Y008006D01*
X007224Y008019D01*
X007198Y008034D01*
X007174Y008053D01*
X007153Y008074D01*
X007134Y008098D01*
X007119Y008124D01*
X007106Y008151D01*
X007097Y008180D01*
X007092Y008210D01*
X007090Y008240D01*
X006340Y008240D01*
X006620Y009478D02*
X008260Y009478D01*
X008260Y010202D01*
X006620Y010202D01*
X006620Y009478D01*
X006840Y009840D02*
X007440Y009840D01*
X007440Y010090D01*
X007440Y009840D02*
X007440Y009590D01*
X007440Y009840D02*
X007040Y009590D01*
X007040Y010090D01*
X007440Y009840D01*
X007690Y009840D01*
X008260Y010578D02*
X008260Y011302D01*
X006620Y011302D01*
X006620Y010578D01*
X008260Y010578D01*
X007690Y010940D02*
X007440Y010940D01*
X007440Y011190D01*
X007440Y010940D02*
X007440Y010690D01*
X007440Y010940D02*
X007040Y010690D01*
X007040Y011190D01*
X007440Y010940D01*
X006840Y010940D01*
X006620Y011678D02*
X006620Y012402D01*
X008260Y012402D01*
X008260Y011678D01*
X006620Y011678D01*
X007190Y012040D02*
X007440Y012040D01*
X007440Y011790D01*
X007440Y012040D02*
X007440Y012290D01*
X007440Y012040D02*
X007840Y012290D01*
X007840Y011790D01*
X007440Y012040D01*
X008040Y012040D01*
X008260Y012778D02*
X008260Y013502D01*
X006620Y013502D01*
X006620Y012778D01*
X008260Y012778D01*
X008040Y013140D02*
X007440Y013140D01*
X007440Y012890D01*
X007440Y013140D02*
X007190Y013140D01*
X007440Y013140D02*
X007440Y013390D01*
X007440Y013140D02*
X007840Y013390D01*
X007840Y012890D01*
X007440Y013140D01*
X010290Y012490D02*
X010290Y013790D01*
X010292Y013816D01*
X010297Y013842D01*
X010305Y013867D01*
X010317Y013890D01*
X010331Y013912D01*
X010349Y013931D01*
X010368Y013949D01*
X010390Y013963D01*
X010413Y013975D01*
X010438Y013983D01*
X010464Y013988D01*
X010490Y013990D01*
X010990Y013990D01*
X011016Y013988D01*
X011042Y013983D01*
X011067Y013975D01*
X011090Y013963D01*
X011112Y013949D01*
X011131Y013931D01*
X011149Y013912D01*
X011163Y013890D01*
X011175Y013867D01*
X011183Y013842D01*
X011188Y013816D01*
X011190Y013790D01*
X011190Y012490D01*
X011188Y012464D01*
X011183Y012438D01*
X011175Y012413D01*
X011163Y012390D01*
X011149Y012368D01*
X011131Y012349D01*
X011112Y012331D01*
X011090Y012317D01*
X011067Y012305D01*
X011042Y012297D01*
X011016Y012292D01*
X010990Y012290D01*
X010490Y012290D01*
X010464Y012292D01*
X010438Y012297D01*
X010413Y012305D01*
X010390Y012317D01*
X010368Y012331D01*
X010349Y012349D01*
X010331Y012368D01*
X010317Y012390D01*
X010305Y012413D01*
X010297Y012438D01*
X010292Y012464D01*
X010290Y012490D01*
X010290Y011390D02*
X010290Y010090D01*
X010292Y010064D01*
X010297Y010038D01*
X010305Y010013D01*
X010317Y009990D01*
X010331Y009968D01*
X010349Y009949D01*
X010368Y009931D01*
X010390Y009917D01*
X010413Y009905D01*
X010438Y009897D01*
X010464Y009892D01*
X010490Y009890D01*
X010740Y010240D02*
X010740Y010620D01*
X010740Y010870D02*
X010740Y011240D01*
X010490Y011590D02*
X010464Y011588D01*
X010438Y011583D01*
X010413Y011575D01*
X010390Y011563D01*
X010368Y011549D01*
X010349Y011531D01*
X010331Y011512D01*
X010317Y011490D01*
X010305Y011467D01*
X010297Y011442D01*
X010292Y011416D01*
X010290Y011390D01*
X010990Y011590D02*
X011016Y011588D01*
X011042Y011583D01*
X011067Y011575D01*
X011090Y011563D01*
X011112Y011549D01*
X011131Y011531D01*
X011149Y011512D01*
X011163Y011490D01*
X011175Y011467D01*
X011183Y011442D01*
X011188Y011416D01*
X011190Y011390D01*
X011190Y010090D01*
X011188Y010064D01*
X011183Y010038D01*
X011175Y010013D01*
X011163Y009990D01*
X011149Y009968D01*
X011131Y009949D01*
X011112Y009931D01*
X011090Y009917D01*
X011067Y009905D01*
X011042Y009897D01*
X011016Y009892D01*
X010990Y009890D01*
X010890Y009390D02*
X009590Y009390D01*
X009564Y009388D01*
X009538Y009383D01*
X009513Y009375D01*
X009490Y009363D01*
X009468Y009349D01*
X009449Y009331D01*
X009431Y009312D01*
X009417Y009290D01*
X009405Y009267D01*
X009397Y009242D01*
X009392Y009216D01*
X009390Y009190D01*
X009390Y008690D01*
X009392Y008664D01*
X009397Y008638D01*
X009405Y008613D01*
X009417Y008590D01*
X009431Y008568D01*
X009449Y008549D01*
X009468Y008531D01*
X009490Y008517D01*
X009513Y008505D01*
X009538Y008497D01*
X009564Y008492D01*
X009590Y008490D01*
X010890Y008490D01*
X010916Y008492D01*
X010942Y008497D01*
X010967Y008505D01*
X010990Y008517D01*
X011012Y008531D01*
X011031Y008549D01*
X011049Y008568D01*
X011063Y008590D01*
X011075Y008613D01*
X011083Y008638D01*
X011088Y008664D01*
X011090Y008690D01*
X011090Y009190D01*
X011088Y009216D01*
X011083Y009242D01*
X011075Y009267D01*
X011063Y009290D01*
X011049Y009312D01*
X011031Y009331D01*
X011012Y009349D01*
X010990Y009363D01*
X010967Y009375D01*
X010942Y009383D01*
X010916Y009388D01*
X010890Y009390D01*
X011740Y011140D02*
X012340Y011140D01*
X012357Y011142D01*
X012374Y011146D01*
X012390Y011153D01*
X012404Y011163D01*
X012417Y011176D01*
X012427Y011190D01*
X012434Y011206D01*
X012438Y011223D01*
X012440Y011240D01*
X012440Y011390D01*
X012390Y011440D01*
X012390Y012840D01*
X012440Y012890D01*
X012440Y013040D01*
X012438Y013057D01*
X012434Y013074D01*
X012427Y013090D01*
X012417Y013104D01*
X012404Y013117D01*
X012390Y013127D01*
X012374Y013134D01*
X012357Y013138D01*
X012340Y013140D01*
X011740Y013140D01*
X011723Y013138D01*
X011706Y013134D01*
X011690Y013127D01*
X011676Y013117D01*
X011663Y013104D01*
X011653Y013090D01*
X011646Y013074D01*
X011642Y013057D01*
X011640Y013040D01*
X011640Y012890D01*
X011690Y012840D01*
X011690Y011440D01*
X011640Y011390D01*
X011640Y011240D01*
X011642Y011223D01*
X011646Y011206D01*
X011653Y011190D01*
X011663Y011176D01*
X011676Y011163D01*
X011690Y011153D01*
X011706Y011146D01*
X011723Y011142D01*
X011740Y011140D01*
X012940Y011340D02*
X012940Y012940D01*
X012942Y012957D01*
X012946Y012974D01*
X012953Y012990D01*
X012963Y013004D01*
X012976Y013017D01*
X012990Y013027D01*
X013006Y013034D01*
X013023Y013038D01*
X013040Y013040D01*
X013640Y013040D01*
X013657Y013038D01*
X013674Y013034D01*
X013690Y013027D01*
X013704Y013017D01*
X013717Y013004D01*
X013727Y012990D01*
X013734Y012974D01*
X013738Y012957D01*
X013740Y012940D01*
X013740Y011340D01*
X013738Y011323D01*
X013734Y011306D01*
X013727Y011290D01*
X013717Y011276D01*
X013704Y011263D01*
X013690Y011253D01*
X013674Y011246D01*
X013657Y011242D01*
X013640Y011240D01*
X013040Y011240D01*
X013023Y011242D01*
X013006Y011246D01*
X012990Y011253D01*
X012976Y011263D01*
X012963Y011276D01*
X012953Y011290D01*
X012946Y011306D01*
X012942Y011323D01*
X012940Y011340D01*
X013340Y011890D02*
X013340Y012140D01*
X013590Y012140D01*
X013340Y012140D02*
X013090Y012140D01*
X013340Y012140D02*
X013090Y012540D01*
X013590Y012540D01*
X013340Y012140D01*
X013340Y012740D01*
X016440Y010040D02*
X016440Y009140D01*
X016540Y009040D01*
X016440Y008940D01*
X016440Y008140D01*
X016540Y008040D01*
X016440Y007940D01*
X016440Y007140D01*
X016540Y007040D01*
X016440Y006940D01*
X016440Y006140D01*
X016540Y006040D01*
X016440Y005940D01*
X016440Y005140D01*
X016540Y005040D01*
X016440Y004940D01*
X016440Y004040D01*
X017440Y004040D01*
X017440Y004940D01*
X017340Y005040D01*
X017440Y005140D01*
X017440Y005940D01*
X017340Y006040D01*
X017440Y006140D01*
X017440Y006940D01*
X017340Y007040D01*
X017440Y007140D01*
X017440Y007940D01*
X017340Y008040D01*
X017440Y008140D01*
X017440Y008940D01*
X017340Y009040D01*
X017440Y009140D01*
X017440Y010040D01*
X016440Y010040D01*
X011040Y005090D02*
X010840Y005090D01*
X010940Y005190D02*
X010940Y004990D01*
X009840Y006040D02*
X009842Y006106D01*
X009848Y006171D01*
X009858Y006236D01*
X009871Y006301D01*
X009889Y006364D01*
X009910Y006427D01*
X009935Y006487D01*
X009964Y006547D01*
X009996Y006604D01*
X010031Y006660D01*
X010070Y006713D01*
X010112Y006764D01*
X010156Y006812D01*
X010204Y006857D01*
X010254Y006900D01*
X010307Y006939D01*
X010362Y006976D01*
X010419Y007009D01*
X010478Y007038D01*
X010538Y007064D01*
X010600Y007086D01*
X010663Y007105D01*
X010727Y007119D01*
X010792Y007130D01*
X010858Y007137D01*
X010924Y007140D01*
X010989Y007139D01*
X011055Y007134D01*
X011120Y007125D01*
X011185Y007112D01*
X011248Y007096D01*
X011311Y007076D01*
X011372Y007051D01*
X011432Y007024D01*
X011490Y006993D01*
X011546Y006958D01*
X011600Y006920D01*
X011651Y006879D01*
X011700Y006835D01*
X011746Y006788D01*
X011790Y006739D01*
X011830Y006687D01*
X011867Y006632D01*
X011901Y006576D01*
X011931Y006517D01*
X011958Y006457D01*
X011981Y006396D01*
X012000Y006333D01*
X012016Y006269D01*
X012028Y006204D01*
X012036Y006139D01*
X012040Y006073D01*
X012040Y006007D01*
X012036Y005941D01*
X012028Y005876D01*
X012016Y005811D01*
X012000Y005747D01*
X011981Y005684D01*
X011958Y005623D01*
X011931Y005563D01*
X011901Y005504D01*
X011867Y005448D01*
X011830Y005393D01*
X011790Y005341D01*
X011746Y005292D01*
X011700Y005245D01*
X011651Y005201D01*
X011600Y005160D01*
X011546Y005122D01*
X011490Y005087D01*
X011432Y005056D01*
X011372Y005029D01*
X011311Y005004D01*
X011248Y004984D01*
X011185Y004968D01*
X011120Y004955D01*
X011055Y004946D01*
X010989Y004941D01*
X010924Y004940D01*
X010858Y004943D01*
X010792Y004950D01*
X010727Y004961D01*
X010663Y004975D01*
X010600Y004994D01*
X010538Y005016D01*
X010478Y005042D01*
X010419Y005071D01*
X010362Y005104D01*
X010307Y005141D01*
X010254Y005180D01*
X010204Y005223D01*
X010156Y005268D01*
X010112Y005316D01*
X010070Y005367D01*
X010031Y005420D01*
X009996Y005476D01*
X009964Y005533D01*
X009935Y005593D01*
X009910Y005653D01*
X009889Y005716D01*
X009871Y005779D01*
X009858Y005844D01*
X009848Y005909D01*
X009842Y005974D01*
X009840Y006040D01*
X004590Y005590D02*
X004590Y006890D01*
X004588Y006916D01*
X004583Y006942D01*
X004575Y006967D01*
X004563Y006990D01*
X004549Y007012D01*
X004531Y007031D01*
X004512Y007049D01*
X004490Y007063D01*
X004467Y007075D01*
X004442Y007083D01*
X004416Y007088D01*
X004390Y007090D01*
X004140Y006740D02*
X004140Y006360D01*
X004140Y006110D02*
X004140Y005740D01*
X004390Y005390D02*
X004416Y005392D01*
X004442Y005397D01*
X004467Y005405D01*
X004490Y005417D01*
X004512Y005431D01*
X004531Y005449D01*
X004549Y005468D01*
X004563Y005490D01*
X004575Y005513D01*
X004583Y005538D01*
X004588Y005564D01*
X004590Y005590D01*
X003890Y005390D02*
X003864Y005392D01*
X003838Y005397D01*
X003813Y005405D01*
X003790Y005417D01*
X003768Y005431D01*
X003749Y005449D01*
X003731Y005468D01*
X003717Y005490D01*
X003705Y005513D01*
X003697Y005538D01*
X003692Y005564D01*
X003690Y005590D01*
X003690Y006890D01*
X003692Y006916D01*
X003697Y006942D01*
X003705Y006967D01*
X003717Y006990D01*
X003731Y007012D01*
X003749Y007031D01*
X003768Y007049D01*
X003790Y007063D01*
X003813Y007075D01*
X003838Y007083D01*
X003864Y007088D01*
X003890Y007090D01*
D14*
X015865Y004515D02*
X016315Y004515D01*
X016315Y004365D02*
X016315Y004665D01*
X016015Y004365D02*
X015865Y004515D01*
X016090Y009365D02*
X015940Y009515D01*
X015865Y009665D01*
X016090Y009590D02*
X016090Y009365D01*
X016240Y009365D01*
X016315Y009440D01*
X016315Y009590D01*
X016240Y009665D01*
X016165Y009665D01*
X016090Y009590D01*
D15*
X002540Y006240D03*
D16*
X003840Y006360D02*
X004140Y006360D01*
X004440Y006360D01*
X004440Y006110D02*
X004140Y006110D01*
X003840Y006110D01*
X010120Y008640D02*
X010120Y009240D01*
X010370Y009240D02*
X010370Y008640D01*
X010440Y010620D02*
X010740Y010620D01*
X011040Y010620D01*
X011040Y010870D02*
X010740Y010870D01*
X010440Y010870D01*
X010440Y013010D02*
X011040Y013010D01*
X011040Y013260D02*
X010440Y013260D01*
D17*
X007990Y010946D03*
X007990Y009846D03*
X006890Y012034D03*
X006890Y013134D03*
D18*
X006495Y013140D03*
X006495Y012040D03*
X006495Y010940D03*
X006495Y009840D03*
X008385Y009840D03*
X008385Y010940D03*
X008385Y012040D03*
X008385Y013140D03*
D19*
X005340Y012640D02*
X005340Y012140D01*
X005340Y011640D02*
X004840Y011640D01*
X004340Y011640D01*
X004840Y012640D01*
X004340Y012640D01*
X004340Y013140D01*
X004840Y012790D02*
X004840Y012640D01*
X005340Y012640D01*
X004840Y012640D02*
X005340Y011640D01*
X004840Y011640D02*
X004840Y011490D01*
D20*
X004040Y010715D03*
X004040Y008565D03*
X012040Y011065D03*
X012040Y013215D03*
D21*
X013340Y011490D03*
D22*
X013340Y011115D03*
X013340Y013165D03*
M02*
