G75*
G70*
%OFA0B0*%
%FSLAX24Y24*%
%IPPOS*%
%LPD*%
%AMOC8*
5,1,8,0,0,1.08239X$1,22.5*
%
%ADD10C,0.0600*%
%ADD11C,0.0671*%
%ADD12OC8,0.0600*%
%ADD13C,0.0749*%
%ADD14OC8,0.0700*%
%ADD15C,0.0700*%
D10*
X005580Y004740D02*
X006100Y004740D01*
X006100Y005740D02*
X005580Y005740D01*
X005580Y006740D02*
X006100Y006740D01*
X006100Y007740D02*
X005580Y007740D01*
X008580Y007740D02*
X009100Y007740D01*
X009100Y006740D02*
X008580Y006740D01*
X008580Y005740D02*
X009100Y005740D01*
X009100Y004740D02*
X008580Y004740D01*
X013340Y010380D02*
X013340Y010900D01*
X013340Y013380D02*
X013340Y013900D01*
X016680Y009540D02*
X017200Y009540D01*
X017200Y008540D02*
X016680Y008540D01*
X016680Y007540D02*
X017200Y007540D01*
X017200Y006540D02*
X016680Y006540D01*
X016680Y005540D02*
X017200Y005540D01*
X017200Y004540D02*
X016680Y004540D01*
D11*
X002540Y005240D03*
X002540Y007240D03*
D12*
X004040Y008140D03*
X004140Y007240D03*
X004140Y005240D03*
X009740Y008940D03*
X010740Y008940D03*
X010740Y009740D03*
X012040Y010640D03*
X010740Y011740D03*
X010740Y012640D03*
X010740Y013640D03*
X012040Y013640D03*
X004840Y013140D03*
X004840Y011140D03*
X004040Y011140D03*
D13*
X005940Y010940D03*
X005940Y009840D03*
X005940Y012040D03*
X005940Y013140D03*
X008940Y013140D03*
X008940Y012040D03*
X008940Y010940D03*
X008940Y009840D03*
D14*
X010940Y006540D03*
D15*
X010940Y005540D03*
M02*
